<mxfile host="65bd71144e">
    <diagram id="iw-G87tjTyXc4Y2Fj7-2" name="Page-2">
        <mxGraphModel dx="602" dy="324" grid="0" gridSize="10" guides="1" tooltips="1" connect="1" arrows="1" fold="1" page="1" pageScale="1" pageWidth="850" pageHeight="1100" background="#787878" math="0" shadow="0">
            <root>
                <mxCell id="0"/>
                <mxCell id="1" parent="0"/>
                <mxCell id="s1-YFog0crGWrIN3GEJ0-2" value="Numerical data" style="shape=ext;margin=3;double=1;whiteSpace=wrap;html=1;align=center;fontSize=12;" parent="1" vertex="1">
                    <mxGeometry x="195" y="179" width="100" height="32" as="geometry"/>
                </mxCell>
                <mxCell id="s1-YFog0crGWrIN3GEJ0-3" value="Text" style="whiteSpace=wrap;html=1;align=center;" parent="1" vertex="1">
                    <mxGeometry x="339" y="203" width="100" height="31" as="geometry"/>
                </mxCell>
                <mxCell id="s1-YFog0crGWrIN3GEJ0-4" value="" style="endArrow=none;html=1;rounded=0;entryX=0;entryY=0.5;entryDx=0;entryDy=0;exitX=1;exitY=0.5;exitDx=0;exitDy=0;" parent="1" source="s1-YFog0crGWrIN3GEJ0-7" target="s1-YFog0crGWrIN3GEJ0-3" edge="1">
                    <mxGeometry relative="1" as="geometry">
                        <mxPoint x="317" y="241" as="sourcePoint"/>
                        <mxPoint x="495" y="215" as="targetPoint"/>
                    </mxGeometry>
                </mxCell>
                <mxCell id="s1-YFog0crGWrIN3GEJ0-5" value="" style="endArrow=none;html=1;rounded=0;entryX=0.5;entryY=1;entryDx=0;entryDy=0;exitX=0.5;exitY=0;exitDx=0;exitDy=0;" parent="1" source="s1-YFog0crGWrIN3GEJ0-7" target="s1-YFog0crGWrIN3GEJ0-2" edge="1">
                    <mxGeometry relative="1" as="geometry">
                        <mxPoint x="293" y="241" as="sourcePoint"/>
                        <mxPoint x="408" y="197" as="targetPoint"/>
                    </mxGeometry>
                </mxCell>
                <mxCell id="s1-YFog0crGWrIN3GEJ0-7" value="U" style="ellipse;whiteSpace=wrap;html=1;aspect=fixed;" parent="1" vertex="1">
                    <mxGeometry x="273.5" y="244" width="21" height="21" as="geometry"/>
                </mxCell>
                <mxCell id="s1-YFog0crGWrIN3GEJ0-8" value="" style="endArrow=none;html=1;rounded=0;exitX=0.5;exitY=1;exitDx=0;exitDy=0;entryX=0.5;entryY=0;entryDx=0;entryDy=0;" parent="1" source="s1-YFog0crGWrIN3GEJ0-7" target="s1-YFog0crGWrIN3GEJ0-11" edge="1">
                    <mxGeometry relative="1" as="geometry">
                        <mxPoint x="335" y="215" as="sourcePoint"/>
                        <mxPoint x="284" y="349" as="targetPoint"/>
                    </mxGeometry>
                </mxCell>
                <mxCell id="s1-YFog0crGWrIN3GEJ0-9" value="&lt;font style=&quot;font-size: 18px;&quot;&gt;U&lt;/font&gt;" style="text;strokeColor=none;align=center;fillColor=none;html=1;verticalAlign=middle;whiteSpace=wrap;rounded=0;" parent="1" vertex="1">
                    <mxGeometry x="253.5" y="271" width="61" height="14" as="geometry"/>
                </mxCell>
                <mxCell id="s1-YFog0crGWrIN3GEJ0-11" value="&lt;font style=&quot;font-size: 12px;&quot;&gt;Input&lt;/font&gt;" style="whiteSpace=wrap;html=1;align=center;fontSize=18;" parent="1" vertex="1">
                    <mxGeometry x="244" y="291.25" width="82" height="26" as="geometry"/>
                </mxCell>
                <mxCell id="s1-YFog0crGWrIN3GEJ0-14" value="Used in&amp;nbsp;" style="shape=rhombus;perimeter=rhombusPerimeter;whiteSpace=wrap;html=1;align=center;fontSize=12;" parent="1" vertex="1">
                    <mxGeometry x="337" y="304" width="83" height="43.5" as="geometry"/>
                </mxCell>
                <mxCell id="s1-YFog0crGWrIN3GEJ0-15" value="" style="endArrow=none;html=1;rounded=0;fontSize=12;exitX=0;exitY=0.5;exitDx=0;exitDy=0;entryX=1;entryY=0.5;entryDx=0;entryDy=0;" parent="1" source="s1-YFog0crGWrIN3GEJ0-14" target="s1-YFog0crGWrIN3GEJ0-11" edge="1">
                    <mxGeometry relative="1" as="geometry">
                        <mxPoint x="335" y="280" as="sourcePoint"/>
                        <mxPoint x="495" y="280" as="targetPoint"/>
                    </mxGeometry>
                </mxCell>
                <mxCell id="s1-YFog0crGWrIN3GEJ0-16" value="M" style="resizable=0;html=1;align=left;verticalAlign=bottom;fontSize=12;" parent="s1-YFog0crGWrIN3GEJ0-15" connectable="0" vertex="1">
                    <mxGeometry x="-1" relative="1" as="geometry">
                        <mxPoint x="-6" as="offset"/>
                    </mxGeometry>
                </mxCell>
                <mxCell id="s1-YFog0crGWrIN3GEJ0-20" value="Study" style="whiteSpace=wrap;html=1;align=center;fontSize=12;" parent="1" vertex="1">
                    <mxGeometry x="442" y="312.5" width="65" height="27" as="geometry"/>
                </mxCell>
                <mxCell id="s1-YFog0crGWrIN3GEJ0-22" value="Author" style="whiteSpace=wrap;html=1;align=center;fontSize=12;" parent="1" vertex="1">
                    <mxGeometry x="633" y="336" width="69" height="28" as="geometry"/>
                </mxCell>
                <mxCell id="s1-YFog0crGWrIN3GEJ0-25" value="Completed from" style="shape=rhombus;perimeter=rhombusPerimeter;whiteSpace=wrap;html=1;align=center;fontSize=12;" parent="1" vertex="1">
                    <mxGeometry x="526" y="326.75" width="91" height="45.5" as="geometry"/>
                </mxCell>
                <mxCell id="s1-YFog0crGWrIN3GEJ0-28" value="" style="endArrow=none;html=1;rounded=0;fontSize=12;entryX=0.5;entryY=1;entryDx=0;entryDy=0;exitX=0.5;exitY=0;exitDx=0;exitDy=0;" parent="1" source="s1-YFog0crGWrIN3GEJ0-30" target="s1-YFog0crGWrIN3GEJ0-22" edge="1">
                    <mxGeometry relative="1" as="geometry">
                        <mxPoint x="669" y="365" as="sourcePoint"/>
                        <mxPoint x="576" y="349" as="targetPoint"/>
                    </mxGeometry>
                </mxCell>
                <mxCell id="s1-YFog0crGWrIN3GEJ0-30" value="d" style="ellipse;whiteSpace=wrap;html=1;aspect=fixed;" parent="1" vertex="1">
                    <mxGeometry x="645" y="385" width="21" height="21" as="geometry"/>
                </mxCell>
                <mxCell id="s1-YFog0crGWrIN3GEJ0-32" value="" style="endArrow=none;html=1;rounded=0;fontSize=12;entryX=0;entryY=1;entryDx=0;entryDy=0;exitX=0.5;exitY=0;exitDx=0;exitDy=0;" parent="1" source="s1-YFog0crGWrIN3GEJ0-33" target="s1-YFog0crGWrIN3GEJ0-30" edge="1">
                    <mxGeometry relative="1" as="geometry">
                        <mxPoint x="653" y="402" as="sourcePoint"/>
                        <mxPoint x="594" y="349" as="targetPoint"/>
                    </mxGeometry>
                </mxCell>
                <mxCell id="s1-YFog0crGWrIN3GEJ0-33" value="Student" style="whiteSpace=wrap;html=1;align=center;fontSize=12;" parent="1" vertex="1">
                    <mxGeometry x="565" y="427.75" width="72" height="29" as="geometry"/>
                </mxCell>
                <mxCell id="s1-YFog0crGWrIN3GEJ0-34" value="Adviser" style="whiteSpace=wrap;html=1;align=center;fontSize=12;" parent="1" vertex="1">
                    <mxGeometry x="653" y="427.75" width="75" height="29" as="geometry"/>
                </mxCell>
                <mxCell id="s1-YFog0crGWrIN3GEJ0-35" value="" style="endArrow=none;html=1;rounded=0;fontSize=12;entryX=1;entryY=1;entryDx=0;entryDy=0;exitX=0.5;exitY=0;exitDx=0;exitDy=0;" parent="1" source="s1-YFog0crGWrIN3GEJ0-34" target="s1-YFog0crGWrIN3GEJ0-30" edge="1">
                    <mxGeometry relative="1" as="geometry">
                        <mxPoint x="631.5" y="409" as="sourcePoint"/>
                        <mxPoint x="689.0753787975414" y="384.92462120245864" as="targetPoint"/>
                    </mxGeometry>
                </mxCell>
                <mxCell id="s1-YFog0crGWrIN3GEJ0-36" value="" style="shape=link;html=1;rounded=0;fontSize=12;entryX=1;entryY=0.5;entryDx=0;entryDy=0;exitX=0;exitY=0.5;exitDx=0;exitDy=0;" parent="1" source="s1-YFog0crGWrIN3GEJ0-20" target="s1-YFog0crGWrIN3GEJ0-14" edge="1">
                    <mxGeometry relative="1" as="geometry">
                        <mxPoint x="397" y="390" as="sourcePoint"/>
                        <mxPoint x="557" y="390" as="targetPoint"/>
                    </mxGeometry>
                </mxCell>
                <mxCell id="s1-YFog0crGWrIN3GEJ0-37" value="N" style="resizable=0;html=1;align=right;verticalAlign=bottom;fontSize=12;" parent="s1-YFog0crGWrIN3GEJ0-36" connectable="0" vertex="1">
                    <mxGeometry x="1" relative="1" as="geometry">
                        <mxPoint x="4" y="-2" as="offset"/>
                    </mxGeometry>
                </mxCell>
                <mxCell id="6jqSOtHFRELOZA-1qb6y-1" value="method" style="whiteSpace=wrap;html=1;align=center;fontSize=12;" parent="1" vertex="1">
                    <mxGeometry x="225" y="456.63" width="83" height="26" as="geometry"/>
                </mxCell>
                <mxCell id="6jqSOtHFRELOZA-1qb6y-2" value="" style="endArrow=none;html=1;rounded=0;fontSize=12;exitX=0.5;exitY=1;exitDx=0;exitDy=0;entryX=0.5;entryY=0;entryDx=0;entryDy=0;" parent="1" source="6jqSOtHFRELOZA-1qb6y-1" target="6jqSOtHFRELOZA-1qb6y-3" edge="1">
                    <mxGeometry relative="1" as="geometry">
                        <mxPoint x="256.5" y="521.63" as="sourcePoint"/>
                        <mxPoint x="263" y="504.63" as="targetPoint"/>
                    </mxGeometry>
                </mxCell>
                <mxCell id="6jqSOtHFRELOZA-1qb6y-3" value="O" style="ellipse;whiteSpace=wrap;html=1;aspect=fixed;" parent="1" vertex="1">
                    <mxGeometry x="256" y="496.63" width="21" height="21" as="geometry"/>
                </mxCell>
                <mxCell id="6jqSOtHFRELOZA-1qb6y-4" value="Theory" style="whiteSpace=wrap;html=1;align=center;fontSize=12;" parent="1" vertex="1">
                    <mxGeometry x="172" y="529.88" width="74" height="23" as="geometry"/>
                </mxCell>
                <mxCell id="6jqSOtHFRELOZA-1qb6y-5" value="Experiment" style="whiteSpace=wrap;html=1;align=center;fontSize=12;" parent="1" vertex="1">
                    <mxGeometry x="291.5" y="529.88" width="74" height="23" as="geometry"/>
                </mxCell>
                <mxCell id="2RwR771hVzsCbk_uVEvj-3" value="Apply to&amp;nbsp;" style="shape=rhombus;perimeter=rhombusPerimeter;whiteSpace=wrap;html=1;align=center;fontSize=12;" parent="1" vertex="1">
                    <mxGeometry x="322" y="447.88" width="83" height="43.5" as="geometry"/>
                </mxCell>
                <mxCell id="2RwR771hVzsCbk_uVEvj-4" value="" style="endArrow=none;html=1;rounded=0;fontSize=12;exitX=0;exitY=0.5;exitDx=0;exitDy=0;entryX=1;entryY=0.5;entryDx=0;entryDy=0;" parent="1" source="2RwR771hVzsCbk_uVEvj-3" target="6jqSOtHFRELOZA-1qb6y-1" edge="1">
                    <mxGeometry relative="1" as="geometry">
                        <mxPoint x="341" y="423.88" as="sourcePoint"/>
                        <mxPoint x="331" y="469.88" as="targetPoint"/>
                    </mxGeometry>
                </mxCell>
                <mxCell id="2RwR771hVzsCbk_uVEvj-5" value="M" style="resizable=0;html=1;align=left;verticalAlign=bottom;fontSize=12;" parent="2RwR771hVzsCbk_uVEvj-4" connectable="0" vertex="1">
                    <mxGeometry x="-1" relative="1" as="geometry">
                        <mxPoint x="-6" as="offset"/>
                    </mxGeometry>
                </mxCell>
                <mxCell id="2RwR771hVzsCbk_uVEvj-6" value="" style="shape=link;html=1;rounded=0;fontSize=12;entryX=1;entryY=0.5;entryDx=0;entryDy=0;exitX=0;exitY=1;exitDx=0;exitDy=0;" parent="1" source="s1-YFog0crGWrIN3GEJ0-20" target="2RwR771hVzsCbk_uVEvj-3" edge="1">
                    <mxGeometry relative="1" as="geometry">
                        <mxPoint x="465" y="391.25" as="sourcePoint"/>
                        <mxPoint x="580" y="455.25" as="targetPoint"/>
                    </mxGeometry>
                </mxCell>
                <mxCell id="2RwR771hVzsCbk_uVEvj-7" value="N" style="resizable=0;html=1;align=right;verticalAlign=bottom;fontSize=12;" parent="2RwR771hVzsCbk_uVEvj-6" connectable="0" vertex="1">
                    <mxGeometry x="1" relative="1" as="geometry">
                        <mxPoint x="-2" y="-5" as="offset"/>
                    </mxGeometry>
                </mxCell>
                <mxCell id="2RwR771hVzsCbk_uVEvj-8" value="" style="endArrow=none;html=1;rounded=0;fontSize=12;entryX=0.5;entryY=0;entryDx=0;entryDy=0;exitX=0;exitY=0.5;exitDx=0;exitDy=0;" parent="1" source="6jqSOtHFRELOZA-1qb6y-3" target="6jqSOtHFRELOZA-1qb6y-4" edge="1">
                    <mxGeometry relative="1" as="geometry">
                        <mxPoint x="399" y="419.63" as="sourcePoint"/>
                        <mxPoint x="559" y="419.63" as="targetPoint"/>
                    </mxGeometry>
                </mxCell>
                <mxCell id="2RwR771hVzsCbk_uVEvj-10" value="" style="endArrow=none;html=1;rounded=0;fontSize=12;exitX=0;exitY=1;exitDx=0;exitDy=0;entryX=0;entryY=0.5;entryDx=0;entryDy=0;" parent="1" source="s1-YFog0crGWrIN3GEJ0-20" target="2RwR771hVzsCbk_uVEvj-11" edge="1">
                    <mxGeometry relative="1" as="geometry">
                        <mxPoint x="416" y="341" as="sourcePoint"/>
                        <mxPoint x="452" y="386" as="targetPoint"/>
                    </mxGeometry>
                </mxCell>
                <mxCell id="2RwR771hVzsCbk_uVEvj-11" value="Reference to" style="shape=rhombus;perimeter=rhombusPerimeter;whiteSpace=wrap;html=1;align=center;fontSize=12;" parent="1" vertex="1">
                    <mxGeometry x="439" y="360.75" width="87" height="54" as="geometry"/>
                </mxCell>
                <mxCell id="2RwR771hVzsCbk_uVEvj-12" value="" style="endArrow=none;html=1;rounded=0;fontSize=12;exitX=1;exitY=1;exitDx=0;exitDy=0;entryX=1;entryY=0.5;entryDx=0;entryDy=0;" parent="1" source="s1-YFog0crGWrIN3GEJ0-20" target="2RwR771hVzsCbk_uVEvj-11" edge="1">
                    <mxGeometry relative="1" as="geometry">
                        <mxPoint x="452" y="349.5" as="sourcePoint"/>
                        <mxPoint x="436" y="405.375" as="targetPoint"/>
                    </mxGeometry>
                </mxCell>
                <mxCell id="2RwR771hVzsCbk_uVEvj-13" value="" style="endArrow=none;html=1;rounded=0;fontSize=12;exitX=0.5;exitY=0;exitDx=0;exitDy=0;entryX=0.5;entryY=1;entryDx=0;entryDy=0;" parent="1" source="s1-YFog0crGWrIN3GEJ0-20" target="rmATGSoF32Y6rA-27DW_-4" edge="1">
                    <mxGeometry relative="1" as="geometry">
                        <mxPoint x="416" y="341" as="sourcePoint"/>
                        <mxPoint x="413" y="274" as="targetPoint"/>
                    </mxGeometry>
                </mxCell>
                <mxCell id="2RwR771hVzsCbk_uVEvj-15" value="" style="endArrow=none;html=1;rounded=0;fontSize=12;entryX=0.5;entryY=0;entryDx=0;entryDy=0;exitX=0;exitY=0.5;exitDx=0;exitDy=0;" parent="1" source="rmATGSoF32Y6rA-27DW_-6" target="s1-YFog0crGWrIN3GEJ0-20" edge="1">
                    <mxGeometry relative="1" as="geometry">
                        <mxPoint x="554" y="270" as="sourcePoint"/>
                        <mxPoint x="487" y="303.25" as="targetPoint"/>
                    </mxGeometry>
                </mxCell>
                <mxCell id="rmATGSoF32Y6rA-27DW_-4" value="Title" style="ellipse;whiteSpace=wrap;html=1;align=center;fontStyle=4;fontSize=12;" parent="1" vertex="1">
                    <mxGeometry x="405" y="273" width="66" height="23" as="geometry"/>
                </mxCell>
                <mxCell id="rmATGSoF32Y6rA-27DW_-6" value="Journals" style="ellipse;shape=doubleEllipse;margin=3;whiteSpace=wrap;html=1;align=center;fontSize=12;" parent="1" vertex="1">
                    <mxGeometry x="489" y="271" width="84" height="30.75" as="geometry"/>
                </mxCell>
                <mxCell id="rmATGSoF32Y6rA-27DW_-8" value="" style="shape=link;html=1;rounded=0;fontSize=12;exitX=0.5;exitY=0;exitDx=0;exitDy=0;entryX=0;entryY=0.5;entryDx=0;entryDy=0;" parent="1" source="s1-YFog0crGWrIN3GEJ0-2" target="rmATGSoF32Y6rA-27DW_-10" edge="1">
                    <mxGeometry relative="1" as="geometry">
                        <mxPoint x="379" y="215" as="sourcePoint"/>
                        <mxPoint x="331" y="153" as="targetPoint"/>
                    </mxGeometry>
                </mxCell>
                <mxCell id="rmATGSoF32Y6rA-27DW_-9" value="N" style="resizable=0;html=1;align=right;verticalAlign=bottom;fontSize=12;" parent="rmATGSoF32Y6rA-27DW_-8" connectable="0" vertex="1">
                    <mxGeometry x="1" relative="1" as="geometry"/>
                </mxCell>
                <mxCell id="rmATGSoF32Y6rA-27DW_-10" value="Comes from" style="shape=rhombus;double=1;perimeter=rhombusPerimeter;whiteSpace=wrap;html=1;align=center;fontSize=12;" parent="1" vertex="1">
                    <mxGeometry x="252.5" y="123.5" width="103" height="46" as="geometry"/>
                </mxCell>
                <mxCell id="rmATGSoF32Y6rA-27DW_-13" value="Institution" style="whiteSpace=wrap;html=1;align=center;fontSize=12;" parent="1" vertex="1">
                    <mxGeometry x="375" y="130" width="96" height="33" as="geometry"/>
                </mxCell>
                <mxCell id="rmATGSoF32Y6rA-27DW_-14" value="" style="endArrow=none;html=1;rounded=0;fontSize=12;entryX=1;entryY=0.5;entryDx=0;entryDy=0;exitX=0;exitY=0.5;exitDx=0;exitDy=0;" parent="1" source="rmATGSoF32Y6rA-27DW_-13" target="rmATGSoF32Y6rA-27DW_-10" edge="1">
                    <mxGeometry relative="1" as="geometry">
                        <mxPoint x="348" y="111" as="sourcePoint"/>
                        <mxPoint x="508" y="111" as="targetPoint"/>
                    </mxGeometry>
                </mxCell>
                <mxCell id="rmATGSoF32Y6rA-27DW_-15" value="1" style="resizable=0;html=1;align=right;verticalAlign=bottom;fontSize=12;" parent="rmATGSoF32Y6rA-27DW_-14" connectable="0" vertex="1">
                    <mxGeometry x="1" relative="1" as="geometry"/>
                </mxCell>
                <mxCell id="rmATGSoF32Y6rA-27DW_-16" value="Institution Name" style="ellipse;whiteSpace=wrap;html=1;align=center;fontSize=12;" parent="1" vertex="1">
                    <mxGeometry x="494" y="104.5" width="96" height="24.5" as="geometry"/>
                </mxCell>
                <mxCell id="rmATGSoF32Y6rA-27DW_-17" value="Institution Id" style="ellipse;whiteSpace=wrap;html=1;align=center;fontStyle=4;fontSize=12;" parent="1" vertex="1">
                    <mxGeometry x="522" y="133" width="86" height="21.75" as="geometry"/>
                </mxCell>
                <mxCell id="rmATGSoF32Y6rA-27DW_-18" value="Field" style="ellipse;whiteSpace=wrap;html=1;align=center;fontSize=12;" parent="1" vertex="1">
                    <mxGeometry x="532" y="159" width="64" height="22" as="geometry"/>
                </mxCell>
                <mxCell id="rmATGSoF32Y6rA-27DW_-19" value="" style="endArrow=none;html=1;rounded=0;fontSize=12;entryX=0;entryY=0.5;entryDx=0;entryDy=0;exitX=1;exitY=0.5;exitDx=0;exitDy=0;" parent="1" source="rmATGSoF32Y6rA-27DW_-13" target="rmATGSoF32Y6rA-27DW_-16" edge="1">
                    <mxGeometry relative="1" as="geometry">
                        <mxPoint x="379" y="215" as="sourcePoint"/>
                        <mxPoint x="539" y="215" as="targetPoint"/>
                    </mxGeometry>
                </mxCell>
                <mxCell id="rmATGSoF32Y6rA-27DW_-20" value="" style="endArrow=none;html=1;rounded=0;fontSize=12;entryX=0;entryY=0.5;entryDx=0;entryDy=0;exitX=1;exitY=0.5;exitDx=0;exitDy=0;" parent="1" source="rmATGSoF32Y6rA-27DW_-13" target="rmATGSoF32Y6rA-27DW_-17" edge="1">
                    <mxGeometry relative="1" as="geometry">
                        <mxPoint x="495" y="169.5" as="sourcePoint"/>
                        <mxPoint x="506" y="133.5" as="targetPoint"/>
                    </mxGeometry>
                </mxCell>
                <mxCell id="rmATGSoF32Y6rA-27DW_-21" value="" style="endArrow=none;html=1;rounded=0;fontSize=12;entryX=0;entryY=0.5;entryDx=0;entryDy=0;exitX=1;exitY=0.5;exitDx=0;exitDy=0;" parent="1" source="rmATGSoF32Y6rA-27DW_-13" target="rmATGSoF32Y6rA-27DW_-18" edge="1">
                    <mxGeometry relative="1" as="geometry">
                        <mxPoint x="495" y="169.5" as="sourcePoint"/>
                        <mxPoint x="517" y="169.5" as="targetPoint"/>
                    </mxGeometry>
                </mxCell>
                <mxCell id="rmATGSoF32Y6rA-27DW_-22" value="" style="endArrow=none;html=1;rounded=0;fontSize=12;entryX=0.5;entryY=0;entryDx=0;entryDy=0;exitX=0.5;exitY=1;exitDx=0;exitDy=0;" parent="1" source="rmATGSoF32Y6rA-27DW_-23" target="s1-YFog0crGWrIN3GEJ0-2" edge="1">
                    <mxGeometry relative="1" as="geometry">
                        <mxPoint x="191" y="165" as="sourcePoint"/>
                        <mxPoint x="539" y="215" as="targetPoint"/>
                    </mxGeometry>
                </mxCell>
                <mxCell id="rmATGSoF32Y6rA-27DW_-23" value="Numerical data Date" style="ellipse;whiteSpace=wrap;html=1;align=center;fontSize=12;" parent="1" vertex="1">
                    <mxGeometry x="41" y="142" width="118" height="31" as="geometry"/>
                </mxCell>
                <mxCell id="rmATGSoF32Y6rA-27DW_-24" value="Title" style="ellipse;whiteSpace=wrap;html=1;align=center;fontSize=12;" parent="1" vertex="1">
                    <mxGeometry x="71" y="104.5" width="79" height="34" as="geometry"/>
                </mxCell>
                <mxCell id="rmATGSoF32Y6rA-27DW_-26" value="" style="endArrow=none;html=1;rounded=0;fontSize=12;exitX=1;exitY=1;exitDx=0;exitDy=0;entryX=0.5;entryY=0;entryDx=0;entryDy=0;" parent="1" source="rmATGSoF32Y6rA-27DW_-24" target="s1-YFog0crGWrIN3GEJ0-2" edge="1">
                    <mxGeometry relative="1" as="geometry">
                        <mxPoint x="379" y="215" as="sourcePoint"/>
                        <mxPoint x="539" y="215" as="targetPoint"/>
                    </mxGeometry>
                </mxCell>
                <mxCell id="rmATGSoF32Y6rA-27DW_-27" value="Length" style="ellipse;whiteSpace=wrap;html=1;align=center;fontSize=12;rotation=0;" parent="1" vertex="1">
                    <mxGeometry x="155" y="101.25" width="85" height="33" as="geometry"/>
                </mxCell>
                <mxCell id="rmATGSoF32Y6rA-27DW_-28" value="" style="endArrow=none;html=1;rounded=0;fontSize=12;entryX=0.5;entryY=1;entryDx=0;entryDy=0;exitX=0.5;exitY=0;exitDx=0;exitDy=0;" parent="1" source="s1-YFog0crGWrIN3GEJ0-2" target="rmATGSoF32Y6rA-27DW_-27" edge="1">
                    <mxGeometry relative="1" as="geometry">
                        <mxPoint x="379" y="215" as="sourcePoint"/>
                        <mxPoint x="539" y="215" as="targetPoint"/>
                    </mxGeometry>
                </mxCell>
                <mxCell id="rmATGSoF32Y6rA-27DW_-29" value="" style="endArrow=none;html=1;rounded=0;fontSize=12;exitX=1;exitY=0.5;exitDx=0;exitDy=0;entryX=0;entryY=0.5;entryDx=0;entryDy=0;" parent="1" source="s1-YFog0crGWrIN3GEJ0-3" target="rmATGSoF32Y6rA-27DW_-32" edge="1">
                    <mxGeometry relative="1" as="geometry">
                        <mxPoint x="416" y="215" as="sourcePoint"/>
                        <mxPoint x="608" y="215" as="targetPoint"/>
                    </mxGeometry>
                </mxCell>
                <mxCell id="rmATGSoF32Y6rA-27DW_-30" value="" style="endArrow=none;html=1;rounded=0;fontSize=12;exitX=1;exitY=0.5;exitDx=0;exitDy=0;entryX=0;entryY=0.5;entryDx=0;entryDy=0;" parent="1" source="s1-YFog0crGWrIN3GEJ0-3" target="rmATGSoF32Y6rA-27DW_-33" edge="1">
                    <mxGeometry relative="1" as="geometry">
                        <mxPoint x="416" y="215" as="sourcePoint"/>
                        <mxPoint x="601" y="238" as="targetPoint"/>
                    </mxGeometry>
                </mxCell>
                <mxCell id="rmATGSoF32Y6rA-27DW_-31" value="" style="endArrow=none;html=1;rounded=0;fontSize=12;exitX=1;exitY=0.5;exitDx=0;exitDy=0;entryX=0;entryY=0.5;entryDx=0;entryDy=0;" parent="1" source="s1-YFog0crGWrIN3GEJ0-3" target="rmATGSoF32Y6rA-27DW_-34" edge="1">
                    <mxGeometry relative="1" as="geometry">
                        <mxPoint x="416" y="215" as="sourcePoint"/>
                        <mxPoint x="618" y="270" as="targetPoint"/>
                    </mxGeometry>
                </mxCell>
                <mxCell id="rmATGSoF32Y6rA-27DW_-32" value="Text Date" style="ellipse;whiteSpace=wrap;html=1;align=center;fontSize=12;" parent="1" vertex="1">
                    <mxGeometry x="449.5" y="182.5" width="73" height="25" as="geometry"/>
                </mxCell>
                <mxCell id="rmATGSoF32Y6rA-27DW_-33" value="Chapter" style="ellipse;whiteSpace=wrap;html=1;align=center;fontSize=12;" parent="1" vertex="1">
                    <mxGeometry x="522" y="197" width="73" height="24" as="geometry"/>
                </mxCell>
                <mxCell id="rmATGSoF32Y6rA-27DW_-34" value="Article" style="ellipse;whiteSpace=wrap;html=1;align=center;fontStyle=4;fontSize=12;" parent="1" vertex="1">
                    <mxGeometry x="480" y="221" width="73" height="23" as="geometry"/>
                </mxCell>
                <mxCell id="rmATGSoF32Y6rA-27DW_-35" value="" style="shape=link;html=1;rounded=0;fontSize=12;exitX=1;exitY=0.5;exitDx=0;exitDy=0;entryX=0;entryY=0.5;entryDx=0;entryDy=0;" parent="1" source="s1-YFog0crGWrIN3GEJ0-20" target="s1-YFog0crGWrIN3GEJ0-25" edge="1">
                    <mxGeometry relative="1" as="geometry">
                        <mxPoint x="416" y="354" as="sourcePoint"/>
                        <mxPoint x="576" y="354" as="targetPoint"/>
                    </mxGeometry>
                </mxCell>
                <mxCell id="rmATGSoF32Y6rA-27DW_-36" value="M" style="resizable=0;html=1;align=left;verticalAlign=bottom;fontSize=12;" parent="rmATGSoF32Y6rA-27DW_-35" connectable="0" vertex="1">
                    <mxGeometry x="-1" relative="1" as="geometry">
                        <mxPoint x="19" y="18" as="offset"/>
                    </mxGeometry>
                </mxCell>
                <mxCell id="rmATGSoF32Y6rA-27DW_-39" value="" style="endArrow=none;html=1;rounded=0;fontSize=12;entryX=1;entryY=0.5;entryDx=0;entryDy=0;exitX=0;exitY=0.5;exitDx=0;exitDy=0;" parent="1" source="s1-YFog0crGWrIN3GEJ0-22" target="s1-YFog0crGWrIN3GEJ0-25" edge="1">
                    <mxGeometry relative="1" as="geometry">
                        <mxPoint x="416" y="354" as="sourcePoint"/>
                        <mxPoint x="576" y="354" as="targetPoint"/>
                    </mxGeometry>
                </mxCell>
                <mxCell id="rmATGSoF32Y6rA-27DW_-40" value="N" style="resizable=0;html=1;align=right;verticalAlign=bottom;fontSize=12;" parent="rmATGSoF32Y6rA-27DW_-39" connectable="0" vertex="1">
                    <mxGeometry x="1" relative="1" as="geometry">
                        <mxPoint y="-2" as="offset"/>
                    </mxGeometry>
                </mxCell>
                <mxCell id="rmATGSoF32Y6rA-27DW_-42" value="&lt;font style=&quot;font-size: 18px;&quot;&gt;U&lt;/font&gt;" style="text;strokeColor=none;align=center;fillColor=none;html=1;verticalAlign=middle;whiteSpace=wrap;rounded=0;rotation=60;" parent="1" vertex="1">
                    <mxGeometry x="201.5" y="511.25" width="63" height="14" as="geometry"/>
                </mxCell>
                <mxCell id="rmATGSoF32Y6rA-27DW_-45" value="&lt;font style=&quot;font-size: 18px;&quot;&gt;U&lt;/font&gt;" style="text;strokeColor=none;align=center;fillColor=none;html=1;verticalAlign=middle;whiteSpace=wrap;rounded=0;rotation=60;" parent="1" vertex="1">
                    <mxGeometry x="593" y="391.38" width="63" height="50.37" as="geometry"/>
                </mxCell>
                <mxCell id="rmATGSoF32Y6rA-27DW_-47" value="&lt;font style=&quot;font-size: 18px;&quot;&gt;U&lt;/font&gt;" style="text;strokeColor=none;align=center;fillColor=none;html=1;verticalAlign=middle;whiteSpace=wrap;rounded=0;rotation=-50;" parent="1" vertex="1">
                    <mxGeometry x="647" y="391.38" width="63" height="50.37" as="geometry"/>
                </mxCell>
                <mxCell id="rmATGSoF32Y6rA-27DW_-48" value="" style="endArrow=none;html=1;rounded=0;fontSize=12;exitX=0.5;exitY=0;exitDx=0;exitDy=0;entryX=0;entryY=0.5;entryDx=0;entryDy=0;" parent="1" source="rmATGSoF32Y6rA-27DW_-6" target="rmATGSoF32Y6rA-27DW_-49" edge="1">
                    <mxGeometry relative="1" as="geometry">
                        <mxPoint x="609" y="300.88" as="sourcePoint"/>
                        <mxPoint x="616" y="301" as="targetPoint"/>
                    </mxGeometry>
                </mxCell>
                <mxCell id="rmATGSoF32Y6rA-27DW_-49" value="Journals Score" style="ellipse;whiteSpace=wrap;html=1;align=center;fontSize=12;" parent="1" vertex="1">
                    <mxGeometry x="599" y="225" width="91" height="22" as="geometry"/>
                </mxCell>
                <mxCell id="rmATGSoF32Y6rA-27DW_-50" value="Journals&amp;nbsp; Name" style="ellipse;whiteSpace=wrap;html=1;align=center;fontStyle=4;fontSize=12;" parent="1" vertex="1">
                    <mxGeometry x="590" y="252.25" width="100" height="27" as="geometry"/>
                </mxCell>
                <mxCell id="rmATGSoF32Y6rA-27DW_-51" value="" style="endArrow=none;html=1;rounded=0;fontSize=12;entryX=0;entryY=0.5;entryDx=0;entryDy=0;exitX=0.5;exitY=0;exitDx=0;exitDy=0;" parent="1" source="rmATGSoF32Y6rA-27DW_-6" target="rmATGSoF32Y6rA-27DW_-50" edge="1">
                    <mxGeometry relative="1" as="geometry">
                        <mxPoint x="416" y="346" as="sourcePoint"/>
                        <mxPoint x="576" y="346" as="targetPoint"/>
                    </mxGeometry>
                </mxCell>
                <mxCell id="rmATGSoF32Y6rA-27DW_-65" value="Author ID" style="ellipse;whiteSpace=wrap;html=1;align=center;fontStyle=4;fontSize=12;" parent="1" vertex="1">
                    <mxGeometry x="607" y="304" width="75" height="27.5" as="geometry"/>
                </mxCell>
                <mxCell id="rmATGSoF32Y6rA-27DW_-66" value="" style="endArrow=none;html=1;rounded=0;fontSize=12;entryX=0.5;entryY=1;entryDx=0;entryDy=0;exitX=0.5;exitY=0;exitDx=0;exitDy=0;" parent="1" source="s1-YFog0crGWrIN3GEJ0-22" target="rmATGSoF32Y6rA-27DW_-65" edge="1">
                    <mxGeometry relative="1" as="geometry">
                        <mxPoint x="416" y="325" as="sourcePoint"/>
                        <mxPoint x="576" y="325" as="targetPoint"/>
                    </mxGeometry>
                </mxCell>
                <mxCell id="rmATGSoF32Y6rA-27DW_-67" value="Age" style="ellipse;whiteSpace=wrap;html=1;align=center;fontSize=12;" parent="1" vertex="1">
                    <mxGeometry x="671" y="286" width="61" height="23.63" as="geometry"/>
                </mxCell>
                <mxCell id="rmATGSoF32Y6rA-27DW_-68" value="" style="endArrow=none;html=1;rounded=0;fontSize=12;entryX=0.5;entryY=1;entryDx=0;entryDy=0;exitX=0.5;exitY=0;exitDx=0;exitDy=0;" parent="1" source="s1-YFog0crGWrIN3GEJ0-22" target="rmATGSoF32Y6rA-27DW_-67" edge="1">
                    <mxGeometry relative="1" as="geometry">
                        <mxPoint x="416" y="325" as="sourcePoint"/>
                        <mxPoint x="576" y="325" as="targetPoint"/>
                    </mxGeometry>
                </mxCell>
                <mxCell id="rmATGSoF32Y6rA-27DW_-70" value="" style="endArrow=none;html=1;rounded=0;fontSize=12;entryX=0.5;entryY=0;entryDx=0;entryDy=0;exitX=1;exitY=0.5;exitDx=0;exitDy=0;" parent="1" source="rmATGSoF32Y6rA-27DW_-71" target="6jqSOtHFRELOZA-1qb6y-1" edge="1">
                    <mxGeometry relative="1" as="geometry">
                        <mxPoint x="231" y="441.88" as="sourcePoint"/>
                        <mxPoint x="583" y="430.88" as="targetPoint"/>
                    </mxGeometry>
                </mxCell>
                <mxCell id="rmATGSoF32Y6rA-27DW_-71" value="Method Name" style="ellipse;whiteSpace=wrap;html=1;align=center;fontStyle=4;fontSize=12;rotation=-15;" parent="1" vertex="1">
                    <mxGeometry x="109" y="439.63" width="83" height="31.25" as="geometry"/>
                </mxCell>
                <mxCell id="rmATGSoF32Y6rA-27DW_-72" value="Method year" style="ellipse;whiteSpace=wrap;html=1;align=center;fontSize=12;" parent="1" vertex="1">
                    <mxGeometry x="169" y="397.13" width="80" height="31" as="geometry"/>
                </mxCell>
                <mxCell id="rmATGSoF32Y6rA-27DW_-73" value="" style="endArrow=none;html=1;rounded=0;fontSize=12;exitX=0.5;exitY=1;exitDx=0;exitDy=0;entryX=0.5;entryY=0;entryDx=0;entryDy=0;" parent="1" source="rmATGSoF32Y6rA-27DW_-72" target="6jqSOtHFRELOZA-1qb6y-1" edge="1">
                    <mxGeometry relative="1" as="geometry">
                        <mxPoint x="423" y="430.88" as="sourcePoint"/>
                        <mxPoint x="583" y="430.88" as="targetPoint"/>
                    </mxGeometry>
                </mxCell>
                <mxCell id="rmATGSoF32Y6rA-27DW_-74" value="Method Author" style="ellipse;whiteSpace=wrap;html=1;align=center;fontSize=12;" parent="1" vertex="1">
                    <mxGeometry x="247" y="409.88" width="93" height="29" as="geometry"/>
                </mxCell>
                <mxCell id="rmATGSoF32Y6rA-27DW_-75" value="" style="endArrow=none;html=1;rounded=0;fontSize=12;entryX=0.5;entryY=1;entryDx=0;entryDy=0;exitX=0.5;exitY=0;exitDx=0;exitDy=0;" parent="1" source="6jqSOtHFRELOZA-1qb6y-1" target="rmATGSoF32Y6rA-27DW_-74" edge="1">
                    <mxGeometry relative="1" as="geometry">
                        <mxPoint x="423" y="430.88" as="sourcePoint"/>
                        <mxPoint x="583" y="430.88" as="targetPoint"/>
                    </mxGeometry>
                </mxCell>
                <mxCell id="rmATGSoF32Y6rA-27DW_-78" value="&lt;font style=&quot;font-size: 18px;&quot;&gt;U&lt;/font&gt;" style="text;strokeColor=none;align=center;fillColor=none;html=1;verticalAlign=middle;whiteSpace=wrap;rounded=0;rotation=-60;" parent="1" vertex="1">
                    <mxGeometry x="270.5" y="511.25" width="61" height="14" as="geometry"/>
                </mxCell>
                <mxCell id="rmATGSoF32Y6rA-27DW_-79" value="" style="endArrow=none;html=1;rounded=0;fontSize=12;exitX=1;exitY=0.5;exitDx=0;exitDy=0;entryX=0.5;entryY=0;entryDx=0;entryDy=0;" parent="1" source="6jqSOtHFRELOZA-1qb6y-3" target="6jqSOtHFRELOZA-1qb6y-5" edge="1">
                    <mxGeometry relative="1" as="geometry">
                        <mxPoint x="423" y="430.88" as="sourcePoint"/>
                        <mxPoint x="583" y="430.88" as="targetPoint"/>
                    </mxGeometry>
                </mxCell>
                <mxCell id="rmATGSoF32Y6rA-27DW_-82" value="" style="endArrow=none;html=1;rounded=0;fontSize=12;entryX=0.5;entryY=1;entryDx=0;entryDy=0;exitX=0.5;exitY=0;exitDx=0;exitDy=0;" parent="1" source="rmATGSoF32Y6rA-27DW_-92" target="6jqSOtHFRELOZA-1qb6y-4" edge="1">
                    <mxGeometry relative="1" as="geometry">
                        <mxPoint x="167" y="575.88" as="sourcePoint"/>
                        <mxPoint x="283" y="596.88" as="targetPoint"/>
                    </mxGeometry>
                </mxCell>
                <mxCell id="rmATGSoF32Y6rA-27DW_-83" value="" style="endArrow=none;html=1;rounded=0;fontSize=12;entryX=0.5;entryY=1;entryDx=0;entryDy=0;exitX=0.5;exitY=0;exitDx=0;exitDy=0;" parent="1" source="rmATGSoF32Y6rA-27DW_-94" target="6jqSOtHFRELOZA-1qb6y-4" edge="1">
                    <mxGeometry relative="1" as="geometry">
                        <mxPoint x="241" y="578.88" as="sourcePoint"/>
                        <mxPoint x="219" y="562.88" as="targetPoint"/>
                    </mxGeometry>
                </mxCell>
                <mxCell id="rmATGSoF32Y6rA-27DW_-85" value="" style="endArrow=none;html=1;rounded=0;fontSize=12;entryX=0.5;entryY=1;entryDx=0;entryDy=0;exitX=0.5;exitY=0;exitDx=0;exitDy=0;" parent="1" source="rmATGSoF32Y6rA-27DW_-90" target="6jqSOtHFRELOZA-1qb6y-5" edge="1">
                    <mxGeometry relative="1" as="geometry">
                        <mxPoint x="298" y="571.88" as="sourcePoint"/>
                        <mxPoint x="229" y="572.88" as="targetPoint"/>
                    </mxGeometry>
                </mxCell>
                <mxCell id="rmATGSoF32Y6rA-27DW_-90" value="Experiment tool" style="ellipse;whiteSpace=wrap;html=1;align=center;fontSize=12;" parent="1" vertex="1">
                    <mxGeometry x="282" y="584.88" width="123" height="26" as="geometry"/>
                </mxCell>
                <mxCell id="rmATGSoF32Y6rA-27DW_-92" value="Theory Describe" style="ellipse;whiteSpace=wrap;html=1;align=center;fontSize=12;" parent="1" vertex="1">
                    <mxGeometry x="85" y="577.88" width="109" height="26" as="geometry"/>
                </mxCell>
                <mxCell id="rmATGSoF32Y6rA-27DW_-94" value="Theory key word" style="ellipse;whiteSpace=wrap;html=1;align=center;fontSize=12;" parent="1" vertex="1">
                    <mxGeometry x="182.5" y="561.88" width="101" height="26" as="geometry"/>
                </mxCell>
                <mxCell id="rmATGSoF32Y6rA-27DW_-100" value="" style="endArrow=none;html=1;rounded=0;fontSize=12;entryX=0.5;entryY=0;entryDx=0;entryDy=0;exitX=0;exitY=0.5;exitDx=0;exitDy=0;" parent="1" source="rmATGSoF32Y6rA-27DW_-101" target="s1-YFog0crGWrIN3GEJ0-22" edge="1">
                    <mxGeometry relative="1" as="geometry">
                        <mxPoint x="709" y="327" as="sourcePoint"/>
                        <mxPoint x="586" y="399" as="targetPoint"/>
                    </mxGeometry>
                </mxCell>
                <mxCell id="rmATGSoF32Y6rA-27DW_-101" value="Gender" style="ellipse;whiteSpace=wrap;html=1;align=center;fontSize=12;" parent="1" vertex="1">
                    <mxGeometry x="700" y="313.5" width="61" height="27" as="geometry"/>
                </mxCell>
                <mxCell id="eo1yMV_M_jVOzMqOuRTX-1" value="Student project" style="ellipse;whiteSpace=wrap;html=1;align=center;fontSize=12;" parent="1" vertex="1">
                    <mxGeometry x="507" y="485" width="90" height="28" as="geometry"/>
                </mxCell>
                <mxCell id="eo1yMV_M_jVOzMqOuRTX-2" value="" style="endArrow=none;html=1;rounded=0;fontSize=12;entryX=0.5;entryY=1;entryDx=0;entryDy=0;exitX=0.5;exitY=0;exitDx=0;exitDy=0;" parent="1" source="eo1yMV_M_jVOzMqOuRTX-1" target="s1-YFog0crGWrIN3GEJ0-33" edge="1">
                    <mxGeometry relative="1" as="geometry">
                        <mxPoint x="530" y="474.75" as="sourcePoint"/>
                        <mxPoint x="611" y="466.75" as="targetPoint"/>
                    </mxGeometry>
                </mxCell>
                <mxCell id="eo1yMV_M_jVOzMqOuRTX-4" value="" style="endArrow=none;html=1;rounded=0;fontSize=12;entryX=0.5;entryY=1;entryDx=0;entryDy=0;exitX=0.5;exitY=0;exitDx=0;exitDy=0;" parent="1" source="zCuJIAPNBO_0qQspKsZr-1" target="s1-YFog0crGWrIN3GEJ0-34" edge="1">
                    <mxGeometry relative="1" as="geometry">
                        <mxPoint x="730.5" y="464.75" as="sourcePoint"/>
                        <mxPoint x="730.5" y="452.12" as="targetPoint"/>
                    </mxGeometry>
                </mxCell>
                <mxCell id="eo1yMV_M_jVOzMqOuRTX-5" value="Adviser dept" style="ellipse;whiteSpace=wrap;html=1;align=center;fontSize=12;" parent="1" vertex="1">
                    <mxGeometry x="622.5" y="490" width="90" height="28" as="geometry"/>
                </mxCell>
                <mxCell id="eo1yMV_M_jVOzMqOuRTX-6" value="" style="endArrow=none;html=1;rounded=0;fontSize=12;entryX=0.5;entryY=0;entryDx=0;entryDy=0;exitX=0.5;exitY=1;exitDx=0;exitDy=0;" parent="1" source="s1-YFog0crGWrIN3GEJ0-34" target="eo1yMV_M_jVOzMqOuRTX-5" edge="1">
                    <mxGeometry relative="1" as="geometry">
                        <mxPoint x="708" y="487" as="sourcePoint"/>
                        <mxPoint x="700.5" y="466.75" as="targetPoint"/>
                    </mxGeometry>
                </mxCell>
                <mxCell id="eo1yMV_M_jVOzMqOuRTX-12" value="M" style="resizable=0;html=1;align=left;verticalAlign=bottom;fontSize=12;" parent="1" connectable="0" vertex="1">
                    <mxGeometry x="442" y="360.75" as="geometry"/>
                </mxCell>
                <mxCell id="eo1yMV_M_jVOzMqOuRTX-13" value="N" style="resizable=0;html=1;align=right;verticalAlign=bottom;fontSize=12;" parent="1" connectable="0" vertex="1">
                    <mxGeometry x="508.50473213036923" y="357.00380377420885" as="geometry"/>
                </mxCell>
                <mxCell id="W2411_77RdKyS9l6s9R9-4" value="" style="endArrow=none;html=1;rounded=0;exitX=0.5;exitY=1;exitDx=0;exitDy=0;" parent="1" source="s1-YFog0crGWrIN3GEJ0-11" target="W2411_77RdKyS9l6s9R9-5" edge="1">
                    <mxGeometry relative="1" as="geometry">
                        <mxPoint x="441" y="265" as="sourcePoint"/>
                        <mxPoint x="84" y="327" as="targetPoint"/>
                    </mxGeometry>
                </mxCell>
                <mxCell id="W2411_77RdKyS9l6s9R9-5" value="Parameters" style="ellipse;whiteSpace=wrap;html=1;align=center;" parent="1" vertex="1">
                    <mxGeometry x="92.5" y="306.5" width="100" height="29.5" as="geometry"/>
                </mxCell>
                <mxCell id="W2411_77RdKyS9l6s9R9-6" value="Input Id" style="ellipse;whiteSpace=wrap;html=1;align=center;fontStyle=4;" parent="1" vertex="1">
                    <mxGeometry x="110" y="341.75" width="87" height="30.5" as="geometry"/>
                </mxCell>
                <mxCell id="W2411_77RdKyS9l6s9R9-7" value="" style="endArrow=none;html=1;rounded=0;exitX=1;exitY=0.5;exitDx=0;exitDy=0;entryX=0.5;entryY=1;entryDx=0;entryDy=0;" parent="1" source="W2411_77RdKyS9l6s9R9-6" target="s1-YFog0crGWrIN3GEJ0-11" edge="1">
                    <mxGeometry relative="1" as="geometry">
                        <mxPoint x="441" y="265" as="sourcePoint"/>
                        <mxPoint x="601" y="265" as="targetPoint"/>
                    </mxGeometry>
                </mxCell>
                <mxCell id="W2411_77RdKyS9l6s9R9-8" value="Input size" style="ellipse;whiteSpace=wrap;html=1;align=center;" parent="1" vertex="1">
                    <mxGeometry x="217" y="336" width="100" height="30.5" as="geometry"/>
                </mxCell>
                <mxCell id="W2411_77RdKyS9l6s9R9-9" value="" style="endArrow=none;html=1;rounded=0;exitX=0.5;exitY=1;exitDx=0;exitDy=0;entryX=0.5;entryY=0;entryDx=0;entryDy=0;" parent="1" source="s1-YFog0crGWrIN3GEJ0-11" target="W2411_77RdKyS9l6s9R9-8" edge="1">
                    <mxGeometry relative="1" as="geometry">
                        <mxPoint x="441" y="265" as="sourcePoint"/>
                        <mxPoint x="601" y="265" as="targetPoint"/>
                    </mxGeometry>
                </mxCell>
                <mxCell id="zCuJIAPNBO_0qQspKsZr-1" value="Adviser major" style="ellipse;shape=doubleEllipse;margin=3;whiteSpace=wrap;html=1;align=center;" parent="1" vertex="1">
                    <mxGeometry x="694" y="466.5" width="100" height="33" as="geometry"/>
                </mxCell>
            </root>
        </mxGraphModel>
    </diagram>
</mxfile>